<mxfile host="app.diagrams.net" agent="Mozilla/5.0 (Windows NT 10.0; Win64; x64) AppleWebKit/537.36 (KHTML, like Gecko) Chrome/130.0.0.0 Safari/537.36" version="24.8.6">
  <diagram id="zd3Txu3bJnZns3KlUa05" name="Page-1">
    <mxGraphModel dx="875" dy="435" grid="1" gridSize="10" guides="1" tooltips="1" connect="1" arrows="1" fold="1" page="1" pageScale="1" pageWidth="850" pageHeight="1100" math="0" shadow="0">
      <root>
        <mxCell id="0" />
        <mxCell id="1" parent="0" />
        <mxCell id="_T6ACkku6F_mnpnWEpOY-4" value="" style="edgeStyle=orthogonalEdgeStyle;rounded=0;orthogonalLoop=1;jettySize=auto;html=1;" edge="1" parent="1" source="_T6ACkku6F_mnpnWEpOY-1" target="_T6ACkku6F_mnpnWEpOY-3">
          <mxGeometry relative="1" as="geometry" />
        </mxCell>
        <mxCell id="_T6ACkku6F_mnpnWEpOY-1" value="Початок" style="ellipse;whiteSpace=wrap;html=1;" vertex="1" parent="1">
          <mxGeometry x="350" y="50" width="120" height="50" as="geometry" />
        </mxCell>
        <mxCell id="_T6ACkku6F_mnpnWEpOY-6" value="" style="edgeStyle=orthogonalEdgeStyle;rounded=0;orthogonalLoop=1;jettySize=auto;html=1;" edge="1" parent="1" source="_T6ACkku6F_mnpnWEpOY-3" target="_T6ACkku6F_mnpnWEpOY-5">
          <mxGeometry relative="1" as="geometry" />
        </mxCell>
        <mxCell id="_T6ACkku6F_mnpnWEpOY-3" value="Прив&#39;язуємо рандом до часу" style="shape=process;whiteSpace=wrap;html=1;backgroundOutline=1;" vertex="1" parent="1">
          <mxGeometry x="350" y="150" width="120" height="60" as="geometry" />
        </mxCell>
        <mxCell id="_T6ACkku6F_mnpnWEpOY-8" value="" style="edgeStyle=orthogonalEdgeStyle;rounded=0;orthogonalLoop=1;jettySize=auto;html=1;" edge="1" parent="1" source="_T6ACkku6F_mnpnWEpOY-5" target="_T6ACkku6F_mnpnWEpOY-7">
          <mxGeometry relative="1" as="geometry" />
        </mxCell>
        <mxCell id="_T6ACkku6F_mnpnWEpOY-5" value="Генеруємо 10 рандомних чисел" style="rounded=1;whiteSpace=wrap;html=1;" vertex="1" parent="1">
          <mxGeometry x="350" y="260" width="120" height="60" as="geometry" />
        </mxCell>
        <mxCell id="_T6ACkku6F_mnpnWEpOY-10" value="" style="edgeStyle=orthogonalEdgeStyle;rounded=0;orthogonalLoop=1;jettySize=auto;html=1;" edge="1" parent="1" source="_T6ACkku6F_mnpnWEpOY-7" target="_T6ACkku6F_mnpnWEpOY-9">
          <mxGeometry relative="1" as="geometry" />
        </mxCell>
        <mxCell id="_T6ACkku6F_mnpnWEpOY-7" value="Виводимо&amp;nbsp;&lt;div&gt;отримані числа&lt;/div&gt;" style="shape=parallelogram;perimeter=parallelogramPerimeter;whiteSpace=wrap;html=1;fixedSize=1;" vertex="1" parent="1">
          <mxGeometry x="350" y="360" width="120" height="60" as="geometry" />
        </mxCell>
        <mxCell id="_T6ACkku6F_mnpnWEpOY-12" value="" style="edgeStyle=orthogonalEdgeStyle;rounded=0;orthogonalLoop=1;jettySize=auto;html=1;" edge="1" parent="1" source="_T6ACkku6F_mnpnWEpOY-9" target="_T6ACkku6F_mnpnWEpOY-11">
          <mxGeometry relative="1" as="geometry" />
        </mxCell>
        <mxCell id="_T6ACkku6F_mnpnWEpOY-9" value="Розмаховуємо середнє арифметичне з тих чисел" style="rounded=1;whiteSpace=wrap;html=1;" vertex="1" parent="1">
          <mxGeometry x="350" y="470" width="120" height="60" as="geometry" />
        </mxCell>
        <mxCell id="_T6ACkku6F_mnpnWEpOY-14" value="" style="edgeStyle=orthogonalEdgeStyle;rounded=0;orthogonalLoop=1;jettySize=auto;html=1;" edge="1" parent="1" source="_T6ACkku6F_mnpnWEpOY-11" target="_T6ACkku6F_mnpnWEpOY-13">
          <mxGeometry relative="1" as="geometry" />
        </mxCell>
        <mxCell id="_T6ACkku6F_mnpnWEpOY-11" value="Виводимо&amp;nbsp;&lt;div&gt;результат&lt;/div&gt;" style="shape=parallelogram;perimeter=parallelogramPerimeter;whiteSpace=wrap;html=1;fixedSize=1;" vertex="1" parent="1">
          <mxGeometry x="350" y="580" width="120" height="60" as="geometry" />
        </mxCell>
        <mxCell id="_T6ACkku6F_mnpnWEpOY-13" value="Кінець" style="ellipse;whiteSpace=wrap;html=1;" vertex="1" parent="1">
          <mxGeometry x="350" y="690" width="120" height="50" as="geometry" />
        </mxCell>
      </root>
    </mxGraphModel>
  </diagram>
</mxfile>
